<svg xmlns="http://www.w3.org/2000/svg" xmlns:xlink="http://www.w3.org/1999/xlink" viewBox="0 0 2999 1524"><defs><style>.a{fill:#fff;}.b{fill:url(#a);}</style><linearGradient id="a" x1="1648.88" y1="1455.65" x2="1411.57" y2="109.77" gradientUnits="userSpaceOnUse"><stop offset="0.4" stop-color="#df6c8f"/><stop offset="0.43" stop-color="#e17596"/><stop offset="0.48" stop-color="#e68da9"/><stop offset="0.55" stop-color="#efb5c7"/><stop offset="0.6" stop-color="#f6d7e1"/></linearGradient></defs><path class="a" d="M2924.67,375.61c-.83-18.95-10.38-29.59-29.15-31.91a99.59,99.59,0,0,0-16.92-.48c-23.95,1.2-46.46,8.25-68.3,17.64-37.59,16.17-71.56,38.4-104,63.1C2641.93,473.08,2585,530,2532,591.08c-41.54,47.89-80.39,97.84-113.19,152.23-6,9.94-11.08,20.44-16.25,30.85a11.48,11.48,0,0,1-8.15,6.55c-9.19,2.31-17.9.63-26.28-3.1-25.24-11.26-50.92-11.07-77.16-4-35.13,9.48-66.81,26.22-97.56,45.12-13.58,8.35-27.17,16.76-41.28,24.15-32.74,17.14-65.51,34.28-98.81,50.31-49.54,23.86-100.16,45.17-153.39,59.63-29.36,8-59,13.77-89.73,11.32a69.63,69.63,0,0,1-28.51-8.35c-20.63-11.34-21.47-45.23-8.65-57.91,3.54-3.5,7-7.21,10.9-10.24,17.41-13.39,34.84-26.76,52.56-39.73,6.69-4.88,14.23-8.6,21.33-12.92,4.82-2.93,9.74-5.73,14.28-9,10.22-7.45,20.26-15.14,30.32-22.8,15.88-12.1,32.79-23.1,47.38-36.6C1984,734.89,2020,705.38,2056.91,677c65.47-50.38,128.4-103.58,184.44-164.52,21-22.81,40.82-46.56,57.78-72.5,9.67-14.79,17.31-30.77,21-48.27,5-23.78-3.78-38.68-26.85-45.56-.64-.19-1.31-.28-2-.46-17.93-5.06-35.71-2.58-53.34,1.46-30.88,7.06-58.87,21-85.71,37.35-41.71,25.44-79.41,56.15-115.14,89.29-95.43,88.52-177.92,188.33-254.62,293.15a36,36,0,0,0-3.65,7c-2.91,6.68-6.26,8.87-13.2,7.21a115.4,115.4,0,0,1-16.07-5.41c-19.8-8-40-8.93-60.82-4.68-30.71,6.28-58.93,18.82-85.93,34.24-15.32,8.75-29.61,19.32-45.14,27.65-35.82,19.21-72.58,36.43-111.07,49.82-58.79,20.45-119.15,31-181.41,29.39a74.68,74.68,0,0,1-24.15-5.08c-8.63-3.3-10.82-9.89-7.6-18.74a56.17,56.17,0,0,1,6.87-13.17c12.92-18.12,21.39-38.27,28.08-59.3,4.89-15.4,7.12-31.1,5.35-47.27-2-18.65-12.77-28.9-31.51-29.4-20.67-.55-38.48,6.63-53.45,20.83a95,95,0,0,0-22.93,33.63c-4.84,12-9.09,24.32-12.8,36.74a74.73,74.73,0,0,0-1,38.52c2.22,9.7,3.68,19.58,6.22,29.19,2.27,8.58-.15,15.6-4.81,22.55a115.28,115.28,0,0,1-25.41,26.65C1088,978.41,1043,999.2,993.81,1011.2a88.43,88.43,0,0,1-25.72,2.44c-25.83-1.51-35.19-18.45-32.8-36.32.53-4,.45-8.05,1.53-11.83,14.3-50,45.46-85.7,92.35-107.71,24.38-11.45,49.27-21.86,73.39-33.82,11.5-5.71,22-13.65,32.48-21.17,3.94-2.82,7.15-7,9.84-11.15,5-7.61,2.6-13.32-6-16-8-2.46-15.85-1.35-23.66.69-42,11-81.06,28.19-116.53,53.32-45,31.89-78.43,72.7-96.5,125.38-4.37,12.72-7.34,25.57-6.85,39.12.62,17.58,7.91,31.38,22.87,40.83,17,10.75,36.27,13,55.63,12.4,20-.62,39.49-5.1,58.37-11.91,36.64-13.22,69.83-32.76,101-55.79,12.56-9.27,24.15-19.83,36.53-29.35,11.43-8.77,24.12-13.15,39-10.81,13.42,2.1,27.06,3.91,40.59,3.84,20.55-.09,41.14-1.43,61.64-3.11,46.31-3.8,91.07-14.9,135-29.71,9.35-3.15,18.6-6.61,29.62-10.54-2.06,2.72-2.94,4-3.92,5.18-13.74,16.71-28,33-41.08,50.24a135.44,135.44,0,0,0-24.11,50.1c-4.83,20,2.37,34.72,21.52,42.5,16.89,6.86,34.25,7.36,51.83,3,26.94-6.75,52.13-18.1,77-30.08,48.6-23.4,95.88-49.28,142.09-77.11a53.39,53.39,0,0,1,8.94-4.33c11.47-4.25,17.56-1.31,21.5,10.16a33.25,33.25,0,0,1,1.59,5.76c2.45,16.13,11.71,27.12,25.8,34.54,16.63,8.75,34.73,11.21,53.08,11.58,26.41.54,52.29-4.12,77.78-10.55,55.36-14,108-35.33,159.53-59.65,6.65-3.14,13.38-6.12,20.7-9.46-11.63,16.94-23.42,32.32-33.17,48.9a137.89,137.89,0,0,0-14.62,35.85c-4.63,18.39-.2,31.21,19.74,40.65a67.62,67.62,0,0,0,44.8,5.17,321.66,321.66,0,0,0,43.82-13.17c43.16-16.87,83.9-38.82,124.4-61.17,20.08-11.09,40-22.4,60.31-33.15,4.12-2.19,10.46-4.58,13.75-2.91,5.23,2.66,2.59,9.54,2.12,14.64-1.5,16.23-4.12,32.39-4.82,48.65-1.06,24.38,1.34,48.53,9.2,71.86,11.19,33.21,31.11,59.29,64.56,71.67,50.75,18.79,99.94,15.48,145.45-15.87,6.67-4.6,12.14-11.22,17.33-17.59,4.28-5.24,3.86-11.65.63-19.56-4.83,2.12-9,3.3-12.46,5.62a262.29,262.29,0,0,0-21.59,16.09c-22.39,18.79-47.62,27.71-76.87,22.34-23.92-4.39-43.24-16.9-58.75-35.32-21.74-25.81-31.08-56.33-32.08-89.51-.72-23.78,4.05-46.93,10.22-69.82a106.31,106.31,0,0,1,20.33-39.66C2402,891,2416.28,879,2431,867.55q78-60.72,156-121.38c61.1-47.71,121.23-96.6,177.36-150.14,41.22-39.32,80.29-80.71,115-126,13.56-17.68,27.58-35.11,36.36-55.93C2920.92,401.79,2925.26,389.28,2924.67,375.61Zm-1130,443.71a111.7,111.7,0,0,1,8.28-20.19c15.42-28.49,34.62-54.44,54.65-79.78,30.52-38.62,63-75.58,97-111.2C2005.38,554.92,2058,503.63,2115.86,458c29-22.88,59.09-44.32,92.39-60.75,14.4-7.11,29.39-12.34,45.36-14.52,2-.27,4-.38,5.91-.56,7.92.13,14,4.67,18.9,9.71,2.28,2.34,2.44,8.38,1.3,12.05-1.73,5.59-5,10.85-8.35,15.76-19,27.95-41.73,52.74-65.18,76.88-65.78,67.72-136.81,129.64-209.44,189.79C1949.8,725.29,1902,763,1852,798c-12,8.38-24.52,16-37,23.63a47.61,47.61,0,0,1-12.87,5.27C1796.08,828.4,1792.85,825.24,1794.67,819.32Zm-592.79,47.92c-4.59,3.87-8.7,3.4-11.62-1.82a32.48,32.48,0,0,1-4.33-14c-.73-20.12,4-38.79,16.64-55,3.45-4.43,6.66-9.09,10.49-13.18a24.48,24.48,0,0,1,8.16-5.46c12.12-5.22,18.62-.51,17.9,13.68-.56,3-1,7-2.1,10.8A175.13,175.13,0,0,1,1211.27,857,55.61,55.61,0,0,1,1201.88,867.24Zm531.18-36.57c-1.8,3.88-4,7.56-6.07,11.32-3,5.55-.48,10.72,2.5,14.74,4,5.34,2.34,8.82-1.37,12.9-4,4.44-7.44,9.46-11.63,13.71-6,6.13-11.82,13-19,17.49-60.34,37.41-122.25,72-187.4,100.44-15.24,6.66-30.7,13-47.37,15.31a37.94,37.94,0,0,1-12.8-.38c-6.53-1.4-9.18-5.38-6.78-11.76,3.12-8.32,6.76-16.76,11.88-23.93,8.49-11.88,17.56-23.54,27.77-33.93,18.43-18.73,37.12-37.34,57.1-54.36,21-17.88,43.3-34.28,65.65-50.47,18.35-13.28,37.85-25,59.38-32.47,10.89-3.8,22.34-6,29.63-7.91,14,.66,23.51,2.09,32,7.27C1735.69,814.25,1737.62,820.89,1733.06,830.67Zm610.53,36.79c-1.19,1.59-3,2.75-4.06,4.4-14,21.37-35.18,33.92-56.6,46.35-50.41,29.25-101.29,57.59-154.71,81.07-16.74,7.37-33.62,14.58-51.92,17.32a35.08,35.08,0,0,1-10.87.11c-8.68-1.45-11.1-5.65-8.66-14.17,3.27-11.47,10.24-20.85,17.47-30,29.47-37.23,63.64-69.64,101.19-98.62,21.35-16.47,42.68-32.94,66-46.54,18.44-10.75,37.37-20.27,58.69-24.25a68.2,68.2,0,0,1,37.21,3c13.27,5,20.27,14.72,20.19,32.33C2357.13,846.9,2351.05,857.48,2343.59,867.46Zm548.36-466a176.58,176.58,0,0,1-23.68,42.66c-22.75,30.58-49.12,57.89-76.33,84.42-68.3,66.59-141.3,127.77-216.17,186.75-27.73,21.84-56.23,42.7-84.28,64.13-9,6.87-17.52,14.36-26.61,21.11a249.74,249.74,0,0,1-21.71,14.19,42.79,42.79,0,0,1-12,4.73c-6.12,1.42-9.33-1.23-8.39-7.32a44.25,44.25,0,0,1,5-14.95q31.76-55.49,68.75-107.63A1410.49,1410.49,0,0,1,2590.91,571c13-14.69,27-28.54,40.49-42.75a831.19,831.19,0,0,1,104.06-92.85c28-20.95,57.34-39.86,90.24-52.63a161.66,161.66,0,0,1,45.49-10.21c5.13-.42,10.59.89,15.64,2.34,6.42,1.86,8.37,5.57,8.9,13.23C2894.49,392.59,2893.58,397.17,2892,401.48ZM994.32,739.86q-66.84,58.41-133.67,116.85-56.94,50-113.56,100.46-60.48,53.57-120.9,107.21c-28.29,25.24-56.31,50.78-84.43,76.21-31.57,28.55-63.27,57-94.62,85.74q-39.34,36.12-78,73c-28.22,26.84-56.35,53.79-84.1,81.12-22.05,21.71-43.41,44.11-65.21,66.09-4.12,4.15-4.51,8.47-2.45,13.58,3.28,8.14-1.2,19.71-9.39,24.63-6.1,3.67-16.34.13-21.73-7.47a22.08,22.08,0,0,1-4.19-16c1.25-9.31,3.52-18.19,10.22-25.5,15.54-16.94,30.32-34.59,46.28-51.11,74.1-76.75,151.54-150.09,229.4-223Q841.07,812.5,1229.74,480.83c105.7-90.22,212.54-179.06,321.62-265.19a175.76,175.76,0,0,0,17-15.41c2.53-2.61,3.89-6.36,6.81-11.33-6.78-.93-11.62-2.52-16.27-2.08-31,2.93-62.05,6.26-93.06,9.53q-62.35,6.57-124.7,13.24c-27.73,2.92-55.48,5.56-83.18,8.71q-64.29,7.32-128.5,15.17c-27,3.27-54,6.57-81,10.26-31.57,4.33-63.12,8.8-94.6,13.75-41,6.45-82,12.8-122.85,20.32-68.28,12.58-136.6,25.08-204.52,39.43q-102.4,21.63-204,47c-85.23,21.11-169.6,45.36-251.94,76.12-14.32,5.36-28.33,11.55-42.43,17.45-4.07,1.71-7.54,3.63-7.05,9.43.18,2.24-2.38,5.59-4.6,7-9.21,5.9-19.23,7.35-29.49,2.89-9.72-4.23-12.62-15-5.62-23.08a55.42,55.42,0,0,1,14.84-11.52c29.13-16.31,60-28.87,91.23-40.45,75-27.78,151.77-49.88,229.1-70.05,131.16-34.21,263.44-63.43,397.07-86.15,66-11.22,132.22-20.66,198.48-30,55.72-7.81,111.6-14.53,167.48-21.22,44.63-5.34,89.35-10,134-14.79q64.08-6.83,128.21-13.14c39.45-3.83,79-7.16,118.41-10.81,17.91-1.66,35.79-3.58,53.68-5.36,14.71-1.46,27.37-7.63,39.14-16.29,33.82-24.87,67.84-49.47,101.6-74.42a43.26,43.26,0,0,1,18.12-7.76c8.6-1.63,13.14,1.5,15.47,10,2.68,9.79,1.84,12.69-6.29,18.63-20.67,15.13-41.53,30-62.09,45.3-4.17,3.1-10.3,5.2-10.27,13.4,4,.32,7.89,1.07,11.67.84,49.87-3.08,99.73-6.36,149.6-9.46,25.94-1.61,51.88-3.18,77.84-4.4,101.84-4.79,203.71-9.09,305.69-9.4,77-.24,153.93,1.62,230.72,7.42,51.48,3.89,102.82,9.24,153.49,19.61,23.51,4.81,46.88,10.31,69,19.94a216.45,216.45,0,0,1,26.26,14.26c18,11.09,25.66,45.37,7.68,65.73-5.18,5.87-11.1,10.63-19.59,10.33-6.17-.22-8.76-2.42-8.29-8.53a33.33,33.33,0,0,1,3.44-11.25c6.21-13.15,5.22-22.62-5.59-32.42a86.88,86.88,0,0,0-20.68-13.63C2665,176.2,2637.26,170.2,2609.32,166c-33.13-5-66.44-8.93-99.79-12.21-29.05-2.86-58.24-4.67-87.41-6.05-38.5-1.82-77-3-115.59-4-17.3-.44-34.63.18-51.94.59q-31.4.75-62.79,2-46.82,1.83-93.61,4c-25.87,1.2-51.74,2.6-77.61,4q-35.31,1.9-70.61,4-50.21,3-100.42,6c-33.47,2-67,3.94-100.42,6-14.89.93-29.78,2-44.66,3.2-23.27,1.8-44.42,10.68-65.68,19.42-20.14,8.29-35.78,22.75-52.18,36.26-32.86,27.07-66.19,53.57-98.59,81.18-46.56,39.68-92.44,80.16-138.64,120.26q-93.78,81.41-187.57,162.79Q1077.93,666.5,994.32,739.86Zm231.49,408c-8.6-17.56-22.39-28.72-41.3-33.31a108.2,108.2,0,0,0-43.61-1.23c-25,4.13-41.43,18.42-49.92,42.09a111.72,111.72,0,0,0-3.46,11.45c-5.36,21.86-5.85,44.16-5.52,66.49,0,9-.49,18,.1,27,1.11,16.93,3,33.76,9.6,49.68,8.71,20.87,23.65,34,46.12,38.45a116.05,116.05,0,0,0,38.71.94c25.51-3.48,43.64-17.11,52.57-41.62a133,133,0,0,0,6.61-25c4.64-30.11,4-60.4,1.34-90.62C1235.68,1176.92,1232.66,1161.9,1225.81,1147.9Zm-36.12,122.32a53.25,53.25,0,0,1-2.57,11.65c-5.35,16.42-18.06,23.64-35,20-7.28-1.55-13.06-5.63-16-12.37-2.73-6.34-5.19-13.11-6-19.9a288.91,288.91,0,0,1,1.33-81.48,49.1,49.1,0,0,1,2.84-10.55c4.34-10.75,11.93-17.46,24-17.87s21.12,4.34,26.36,15.76c4.83,10.52,5.66,21.79,6.53,33,.61,7.93.12,16,.12,23.93l1.25,0C1191.61,1245.05,1190.82,1257.65,1189.69,1270.22Zm242.56-5.28c3.77,17.6,3.8,35.08-4,51.78-7.34,15.71-19.86,25.75-36.41,30.19a107.72,107.72,0,0,1-60-.77c-27.58-8.33-42.11-27.8-45.77-55.72-1-7.45-.14-15.14-.14-23.83l45.32,3.32c.27,4.11.39,7.37.71,10.61.94,9.52,5.64,17,14.92,19.16a92.68,92.68,0,0,0,25.55,1.94,15.12,15.12,0,0,0,14.41-12c1.74-7.28-.1-14.32-6.29-18.78a113.34,113.34,0,0,0-19-10.68c-8.75-4-18-7-26.73-11-12.16-5.5-23.91-11.78-32.26-22.73-18.32-24-17.83-50.22-6.82-76.48,10.48-25,31.46-36,57.64-37.85a98.15,98.15,0,0,1,20.92.57c28.66,4.22,48.13,22.41,54.84,50.85a83.49,83.49,0,0,1,1.84,30.88l-45.6-3.2c-.49-3.87-1.08-7.7-1.44-11.54-1.05-11.12-7.84-18.69-18.83-19.66a43.5,43.5,0,0,0-14.7,1.47c-8.06,2.14-12.87,7.87-14.63,16.06s1.27,14.91,7.88,19c8.1,5.09,17,9,25.61,13.18,11.38,5.45,23.34,9.84,34.24,16.1C1418.5,1234.53,1428.55,1247.69,1432.25,1264.94Zm423.45,59.21c.06,7.61,0,15.22,0,23.5H1737.48c-2.23-7.4-2.43-223.26-.09-233.54H1852c2.08,6.58,2.6,33.31.74,47.25h-69v48.35h57.65v48.06H1783.6v43.08c11.86.09,23.67.22,35.49.26,11.64.05,23.29,0,36.22,0C1855.45,1309.15,1855.63,1316.65,1855.7,1324.15Zm439.13-23c.11,16,.1,31,0,46.63H2155.57c0-11.46-.35-22.38.2-33.26.17-3.39,2.62-6.74,4.31-10q33.77-64.65,67.58-129.26c2.1-4,3.8-8.25,6.27-13.67h-77.87v-46.25c7-2.14,119.59-3,138.57-.91-.19,17.17,2,33.9-7.34,50.75-22.65,40.69-43.59,82.33-65.19,123.6-1.69,3.23-3.2,6.54-5.42,11.1,9,2.24,17.51.95,25.85,1.18s16.65,0,25,0Zm-606-186.33v46.51h-71.22c-2.19,20.19-1.09,39.27-.91,59.37h59.67c1.24,16.06.4,31.17.62,47.33h-59.39c-2.74,27-.06,53.14-1.72,79.73h-45.75V1115.37C1577,1113.21,1676.17,1112.64,1688.78,1114.79Zm-711.1,185.1h69.13v46.73c-6.9,2.12-98.8,2.83-114.72.79V1114.05h45.59Zm971.3,0h69.15v46.77c-6.77,2.1-99.44,2.8-114.55.73V1114.07H1949Zm111.67-185.61h45.81v233.57h-45.81ZM687.28,1200.67a143.62,143.62,0,0,0-29.53-3.87c-12.94-.5-25.91.36-38.3,4.93-10,3.7-17.42,10.27-19.22,21-1.24,7.43-1.16,15.19-.78,22.76.63,12.83,8.31,20.3,20,24.56,11.49,4.19,23.35,4.6,35.48,5.39,10.81-1.37,21.87-1.74,32.37-4.35,17.51-4.36,24.65-14.63,24.7-32.52,0-2.32,0-4.65-.16-7C710.91,1214.9,703.53,1204.79,687.28,1200.67Zm5.19,46.45c-.59,7.53-5.46,12.83-12.75,15.11a80.48,80.48,0,0,1-49,.07c-7.77-2.42-12.16-8.24-12.77-16.19a130.82,130.82,0,0,1,.26-19.89c.76-9.82,6.61-15.8,15.91-18,6.08-1.46,12.41-1.92,21.06-3.18,6.55,1.2,15.37,2.51,24,4.52a15.78,15.78,0,0,1,12.57,13.94A116.2,116.2,0,0,1,692.47,1247.12ZM764.78,1206v29.69h50.36c.18,3.7.31,6.36.49,10.09H764.12v28h-18v-75.63h80.44c.23,2.26.45,4.42.79,7.86Z"/><path class="b" d="M2924.67,369.61c-.83-18.95-10.38-29.59-29.15-31.91a99.59,99.59,0,0,0-16.92-.48c-23.95,1.2-46.46,8.25-68.3,17.64-37.59,16.17-71.56,38.4-104,63.1C2641.93,467.08,2585,524,2532,585.08c-41.54,47.89-80.39,97.84-113.19,152.23-6,9.94-11.08,20.44-16.25,30.85a11.48,11.48,0,0,1-8.15,6.55c-9.19,2.31-17.9.63-26.28-3.1-25.24-11.26-50.92-11.07-77.16-4-35.13,9.48-66.81,26.22-97.56,45.12-13.58,8.35-27.17,16.76-41.28,24.15-32.74,17.14-65.51,34.28-98.81,50.31-49.54,23.86-100.16,45.17-153.39,59.63-29.36,8-59,13.77-89.73,11.32a69.63,69.63,0,0,1-28.51-8.35c-20.63-11.34-21.47-45.23-8.65-57.91,3.54-3.5,7-7.21,10.9-10.24,17.41-13.39,34.84-26.76,52.56-39.73,6.69-4.88,14.23-8.6,21.33-12.92,4.82-2.93,9.74-5.73,14.28-9,10.22-7.45,20.26-15.14,30.32-22.8,15.88-12.1,32.79-23.1,47.38-36.6C1984,728.89,2020,699.38,2056.91,671c65.47-50.38,128.4-103.58,184.44-164.52,21-22.81,40.82-46.56,57.78-72.5,9.67-14.79,17.31-30.77,21-48.27,5-23.78-3.78-38.68-26.85-45.56-.64-.19-1.31-.28-2-.46-17.93-5.06-35.71-2.58-53.34,1.46-30.88,7.06-58.87,21-85.71,37.35-41.71,25.44-79.41,56.15-115.14,89.29-95.43,88.52-177.92,188.33-254.62,293.15a36,36,0,0,0-3.65,7c-2.91,6.68-6.26,8.87-13.2,7.21a115.4,115.4,0,0,1-16.07-5.41c-19.8-8-40-8.93-60.82-4.68-30.71,6.28-58.93,18.82-85.93,34.24-15.32,8.75-29.61,19.32-45.14,27.65-35.82,19.21-72.58,36.43-111.07,49.82-58.79,20.45-119.15,31-181.41,29.39a74.68,74.68,0,0,1-24.15-5.08c-8.63-3.3-10.82-9.89-7.6-18.74a56.17,56.17,0,0,1,6.87-13.17c12.92-18.12,21.39-38.27,28.08-59.3,4.89-15.4,7.12-31.1,5.35-47.27-2-18.65-12.77-28.9-31.51-29.4-20.67-.55-38.48,6.63-53.45,20.83a95,95,0,0,0-22.93,33.63c-4.84,12-9.09,24.32-12.8,36.74a74.73,74.73,0,0,0-1,38.52c2.22,9.7,3.68,19.58,6.22,29.19,2.27,8.58-.15,15.6-4.81,22.55a115.28,115.28,0,0,1-25.41,26.65C1088,972.41,1043,993.2,993.81,1005.2a88.43,88.43,0,0,1-25.72,2.44c-25.83-1.51-35.19-18.45-32.8-36.32.53-4,.45-8.05,1.53-11.83,14.3-50,45.46-85.7,92.35-107.71,24.38-11.45,49.27-21.86,73.39-33.82,11.5-5.71,22-13.65,32.48-21.17,3.94-2.82,7.15-7,9.84-11.15,5-7.61,2.6-13.32-6-16-8-2.46-15.85-1.35-23.66.69-42,11-81.06,28.19-116.53,53.32-45,31.89-78.43,72.7-96.5,125.38-4.37,12.72-7.34,25.57-6.85,39.12.62,17.58,7.91,31.38,22.87,40.83,17,10.75,36.27,13,55.63,12.4,20-.62,39.49-5.1,58.37-11.91,36.64-13.22,69.83-32.76,101-55.79,12.56-9.27,24.15-19.83,36.53-29.35,11.43-8.77,24.12-13.15,39-10.81,13.42,2.1,27.06,3.91,40.59,3.84,20.55-.09,41.14-1.43,61.64-3.11,46.31-3.8,91.07-14.9,135-29.71,9.35-3.15,18.6-6.61,29.62-10.54-2.06,2.72-2.94,4-3.92,5.18-13.74,16.71-28,33-41.08,50.24a135.44,135.44,0,0,0-24.11,50.1c-4.83,20,2.37,34.72,21.52,42.5,16.89,6.86,34.25,7.36,51.83,3,26.94-6.75,52.13-18.1,77-30.08,48.6-23.4,95.88-49.28,142.09-77.11a53.39,53.39,0,0,1,8.94-4.33c11.47-4.25,17.56-1.31,21.5,10.16a33.25,33.25,0,0,1,1.59,5.76c2.45,16.13,11.71,27.12,25.8,34.54,16.63,8.75,34.73,11.21,53.08,11.58,26.41.54,52.29-4.12,77.78-10.55,55.36-14,108-35.33,159.53-59.65,6.65-3.14,13.38-6.12,20.7-9.46-11.63,16.94-23.42,32.32-33.17,48.9a137.89,137.89,0,0,0-14.62,35.85c-4.63,18.39-.2,31.21,19.74,40.65a67.62,67.62,0,0,0,44.8,5.17,321.66,321.66,0,0,0,43.82-13.17c43.16-16.87,83.9-38.82,124.4-61.17,20.08-11.09,40-22.4,60.31-33.15,4.12-2.19,10.46-4.58,13.75-2.91,5.23,2.66,2.59,9.54,2.12,14.64-1.5,16.23-4.12,32.39-4.82,48.65-1.06,24.38,1.34,48.53,9.2,71.86,11.19,33.21,31.11,59.29,64.56,71.67,50.75,18.79,99.94,15.48,145.45-15.87,6.67-4.6,12.14-11.22,17.33-17.59,4.28-5.24,3.86-11.65.63-19.56-4.83,2.12-9,3.3-12.46,5.62a262.29,262.29,0,0,0-21.59,16.09c-22.39,18.79-47.62,27.71-76.87,22.34-23.92-4.39-43.24-16.9-58.75-35.32-21.74-25.81-31.08-56.33-32.08-89.51-.72-23.78,4.05-46.93,10.22-69.82a106.31,106.31,0,0,1,20.33-39.66C2402,885,2416.28,873,2431,861.55q78-60.72,156-121.38c61.1-47.71,121.23-96.6,177.36-150.14,41.22-39.32,80.29-80.71,115-126,13.56-17.68,27.58-35.11,36.36-55.93C2920.92,395.79,2925.26,383.28,2924.67,369.61Zm-1130,443.71a111.7,111.7,0,0,1,8.28-20.19c15.42-28.49,34.62-54.44,54.65-79.78,30.52-38.62,63-75.58,97-111.2C2005.38,548.92,2058,497.63,2115.86,452c29-22.88,59.09-44.32,92.39-60.75,14.4-7.11,29.39-12.34,45.36-14.52,2-.27,4-.38,5.91-.56,7.92.13,14,4.67,18.9,9.71,2.28,2.34,2.44,8.38,1.3,12.05-1.73,5.59-5,10.85-8.35,15.76-19,27.95-41.73,52.74-65.18,76.88-65.78,67.72-136.81,129.64-209.44,189.79C1949.8,719.29,1902,757,1852,792c-12,8.38-24.52,16-37,23.63a47.61,47.61,0,0,1-12.87,5.27C1796.08,822.4,1792.85,819.24,1794.67,813.32Zm-592.79,47.92c-4.59,3.87-8.7,3.4-11.62-1.82a32.48,32.48,0,0,1-4.33-14c-.73-20.12,4-38.79,16.64-55,3.45-4.43,6.66-9.09,10.49-13.18a24.48,24.48,0,0,1,8.16-5.46c12.12-5.22,18.62-.51,17.9,13.68-.56,3-1,7-2.1,10.8A175.13,175.13,0,0,1,1211.27,851,55.61,55.61,0,0,1,1201.88,861.24Zm531.18-36.57c-1.8,3.88-4,7.56-6.07,11.32-3,5.55-.48,10.72,2.5,14.74,4,5.34,2.34,8.82-1.37,12.9-4,4.44-7.44,9.46-11.63,13.71-6,6.13-11.82,13-19,17.49-60.34,37.41-122.25,72-187.4,100.44-15.24,6.66-30.7,13-47.37,15.31a37.94,37.94,0,0,1-12.8-.38c-6.53-1.4-9.18-5.38-6.78-11.76,3.12-8.32,6.76-16.76,11.88-23.93,8.49-11.88,17.56-23.54,27.77-33.93,18.43-18.73,37.12-37.34,57.1-54.36,21-17.88,43.3-34.28,65.65-50.47,18.35-13.28,37.85-25,59.38-32.47,10.89-3.8,22.34-6,29.63-7.91,14,.66,23.51,2.09,32,7.27C1735.69,808.25,1737.62,814.89,1733.06,824.67Zm610.53,36.79c-1.19,1.59-3,2.75-4.06,4.4-14,21.37-35.18,33.92-56.6,46.35-50.41,29.25-101.29,57.59-154.71,81.07-16.74,7.37-33.62,14.58-51.92,17.32a35.08,35.08,0,0,1-10.87.11c-8.68-1.45-11.1-5.65-8.66-14.17,3.27-11.47,10.24-20.85,17.47-30,29.47-37.23,63.64-69.64,101.19-98.62,21.35-16.47,42.68-32.94,66-46.54,18.44-10.75,37.37-20.27,58.69-24.25a68.2,68.2,0,0,1,37.21,3c13.27,5,20.27,14.72,20.19,32.33C2357.13,840.9,2351.05,851.48,2343.59,861.46Zm548.36-466a176.58,176.58,0,0,1-23.68,42.66c-22.75,30.58-49.12,57.89-76.33,84.42-68.3,66.59-141.3,127.77-216.17,186.75-27.73,21.84-56.23,42.7-84.28,64.13-9,6.87-17.52,14.36-26.61,21.11a249.74,249.74,0,0,1-21.71,14.19,42.79,42.79,0,0,1-12,4.73c-6.12,1.42-9.33-1.23-8.39-7.32a44.25,44.25,0,0,1,5-14.95q31.76-55.49,68.75-107.63A1410.49,1410.49,0,0,1,2590.91,565c13-14.69,27-28.54,40.49-42.75a831.19,831.19,0,0,1,104.06-92.85c28-20.95,57.34-39.86,90.24-52.63a161.66,161.66,0,0,1,45.49-10.21c5.13-.42,10.59.89,15.64,2.34,6.42,1.86,8.37,5.57,8.9,13.23C2894.49,386.59,2893.58,391.17,2892,395.48ZM994.32,733.86q-66.84,58.41-133.67,116.85-56.94,50-113.56,100.46-60.48,53.57-120.9,107.21c-28.29,25.24-56.31,50.78-84.43,76.21-31.57,28.55-63.27,57-94.62,85.74q-39.34,36.12-78,73c-28.22,26.84-56.35,53.79-84.1,81.12-22.05,21.71-43.41,44.11-65.21,66.09-4.12,4.15-4.51,8.47-2.45,13.58,3.28,8.14-1.2,19.71-9.39,24.63-6.1,3.67-16.34.13-21.73-7.47a22.08,22.08,0,0,1-4.19-16c1.25-9.31,3.52-18.19,10.22-25.5,15.54-16.94,30.32-34.59,46.28-51.11,74.1-76.75,151.54-150.09,229.4-223Q841.07,806.5,1229.74,474.83c105.7-90.22,212.54-179.06,321.62-265.19a175.76,175.76,0,0,0,17-15.41c2.53-2.61,3.89-6.36,6.81-11.33-6.78-.93-11.62-2.52-16.27-2.08-31,2.93-62.05,6.26-93.06,9.53q-62.35,6.57-124.7,13.24c-27.73,2.92-55.48,5.56-83.18,8.71q-64.29,7.32-128.5,15.17c-27,3.27-54,6.57-81,10.26-31.57,4.33-63.12,8.8-94.6,13.75-41,6.45-82,12.8-122.85,20.32-68.28,12.58-136.6,25.08-204.52,39.43q-102.4,21.63-204,47c-85.23,21.11-169.6,45.36-251.94,76.12-14.32,5.36-28.33,11.55-42.43,17.45-4.07,1.71-7.54,3.63-7.05,9.43.18,2.24-2.38,5.59-4.6,7-9.21,5.9-19.23,7.35-29.49,2.89-9.72-4.23-12.62-15-5.62-23.08a55.42,55.42,0,0,1,14.84-11.52c29.13-16.31,60-28.87,91.23-40.45,75-27.78,151.77-49.88,229.1-70.05,131.16-34.21,263.44-63.43,397.07-86.15,66-11.22,132.22-20.66,198.48-30,55.72-7.81,111.6-14.53,167.48-21.22,44.63-5.34,89.35-10,134-14.79q64.08-6.83,128.21-13.14c39.45-3.83,79-7.16,118.41-10.81,17.91-1.66,35.79-3.58,53.68-5.36,14.71-1.46,27.37-7.63,39.14-16.29,33.82-24.87,67.84-49.47,101.6-74.42a43.26,43.26,0,0,1,18.12-7.76c8.6-1.63,13.14,1.5,15.47,10,2.68,9.79,1.84,12.69-6.29,18.63-20.67,15.13-41.53,30-62.09,45.3-4.17,3.1-10.3,5.2-10.27,13.4,4,.32,7.89,1.07,11.67.84,49.87-3.08,99.73-6.36,149.6-9.46,25.94-1.61,51.88-3.18,77.84-4.4,101.84-4.79,203.71-9.09,305.69-9.4,77-.24,153.93,1.62,230.72,7.42,51.48,3.89,102.82,9.24,153.49,19.61,23.51,4.81,46.88,10.31,69,19.94a216.45,216.45,0,0,1,26.26,14.26c18,11.09,25.66,45.37,7.68,65.73-5.18,5.87-11.1,10.63-19.59,10.33-6.17-.22-8.76-2.42-8.29-8.53a33.33,33.33,0,0,1,3.44-11.25c6.21-13.15,5.22-22.62-5.59-32.42a86.88,86.88,0,0,0-20.68-13.63C2665,170.2,2637.26,164.2,2609.32,160c-33.13-5-66.44-8.93-99.79-12.21-29.05-2.86-58.24-4.67-87.41-6.05-38.5-1.82-77-3-115.59-4-17.3-.44-34.63.18-51.94.59q-31.4.75-62.79,2-46.82,1.83-93.61,4c-25.87,1.2-51.74,2.6-77.61,4q-35.31,1.9-70.61,4-50.21,3-100.42,6c-33.47,2-67,3.94-100.42,6-14.89.93-29.78,2-44.66,3.2-23.27,1.8-44.42,10.68-65.68,19.42-20.14,8.29-35.78,22.75-52.18,36.26-32.86,27.07-66.19,53.57-98.59,81.18-46.56,39.68-92.44,80.16-138.64,120.26q-93.78,81.4-187.57,162.79Q1077.93,660.5,994.32,733.86Zm231.49,408c-8.6-17.56-22.39-28.72-41.3-33.31a108.2,108.2,0,0,0-43.61-1.23c-25,4.13-41.43,18.42-49.92,42.09a111.72,111.72,0,0,0-3.46,11.45c-5.36,21.86-5.85,44.16-5.52,66.49,0,9-.49,18,.1,27,1.11,16.93,3,33.76,9.6,49.68,8.71,20.87,23.65,34,46.12,38.45a116.05,116.05,0,0,0,38.71.94c25.51-3.48,43.64-17.11,52.57-41.62a133,133,0,0,0,6.61-25c4.64-30.11,4-60.4,1.34-90.62C1235.68,1170.92,1232.66,1155.9,1225.81,1141.9Zm-36.12,122.32a53.25,53.25,0,0,1-2.57,11.65c-5.35,16.42-18.06,23.64-35,20-7.28-1.55-13.06-5.63-16-12.37-2.73-6.34-5.19-13.11-6-19.9a288.91,288.91,0,0,1,1.33-81.48,49.1,49.1,0,0,1,2.84-10.55c4.34-10.75,11.93-17.46,24-17.87s21.12,4.34,26.36,15.76c4.83,10.52,5.66,21.79,6.53,33,.61,7.93.12,16,.12,23.93l1.25,0C1191.61,1239.05,1190.82,1251.65,1189.69,1264.22Zm242.56-5.28c3.77,17.6,3.8,35.08-4,51.78-7.34,15.71-19.86,25.75-36.41,30.19a107.72,107.72,0,0,1-60-.77c-27.58-8.33-42.11-27.8-45.77-55.72-1-7.45-.14-15.14-.14-23.83l45.32,3.32c.27,4.11.39,7.37.71,10.61.94,9.52,5.64,17,14.92,19.16a92.68,92.68,0,0,0,25.55,1.94,15.12,15.12,0,0,0,14.41-12c1.74-7.28-.1-14.32-6.29-18.78a113.34,113.34,0,0,0-19-10.68c-8.75-4-18-7-26.73-11-12.16-5.5-23.91-11.78-32.26-22.73-18.32-24-17.83-50.22-6.82-76.48,10.48-25,31.46-36,57.64-37.85a98.15,98.15,0,0,1,20.92.57c28.66,4.22,48.13,22.41,54.84,50.85a83.49,83.49,0,0,1,1.84,30.88l-45.6-3.2c-.49-3.87-1.08-7.7-1.44-11.54-1.05-11.12-7.84-18.69-18.83-19.66a43.5,43.5,0,0,0-14.7,1.47c-8.06,2.14-12.87,7.87-14.63,16.06s1.27,14.91,7.88,19c8.1,5.09,17,9,25.61,13.18,11.38,5.45,23.34,9.84,34.24,16.1C1418.5,1228.53,1428.55,1241.69,1432.25,1258.94Zm423.45,59.21c.06,7.61,0,15.22,0,23.5H1737.48c-2.23-7.4-2.43-223.26-.09-233.54H1852c2.08,6.58,2.6,33.31.74,47.25h-69v48.35h57.65v48.06H1783.6v43.08c11.86.09,23.67.22,35.49.26,11.64.05,23.29,0,36.22,0C1855.45,1303.15,1855.63,1310.65,1855.7,1318.15Zm439.13-23c.11,16,.1,31,0,46.63H2155.57c0-11.46-.35-22.38.2-33.26.17-3.39,2.62-6.74,4.31-10q33.77-64.65,67.58-129.26c2.1-4,3.8-8.25,6.27-13.67h-77.87v-46.25c7-2.14,119.59-3,138.57-.91-.19,17.17,2,33.9-7.34,50.75-22.65,40.69-43.59,82.33-65.19,123.6-1.69,3.23-3.2,6.54-5.42,11.1,9,2.24,17.51.95,25.85,1.18s16.65,0,25,0Zm-606-186.33v46.51h-71.22c-2.19,20.19-1.09,39.27-.91,59.37h59.67c1.24,16.06.4,31.17.62,47.33h-59.39c-2.74,27-.06,53.14-1.72,79.73h-45.75V1109.37C1577,1107.21,1676.17,1106.64,1688.78,1108.79Zm-711.1,185.1h69.13v46.73c-6.9,2.12-98.8,2.83-114.72.79V1108.05h45.59Zm971.3,0h69.15v46.77c-6.77,2.1-99.44,2.8-114.55.73V1108.07H1949Zm111.67-185.61h45.81v233.57h-45.81ZM687.28,1194.67a143.62,143.62,0,0,0-29.53-3.87c-12.94-.5-25.91.36-38.3,4.93-10,3.7-17.42,10.27-19.22,21-1.24,7.43-1.16,15.19-.78,22.76.63,12.83,8.31,20.3,20,24.56,11.49,4.19,23.35,4.6,35.48,5.39,10.81-1.37,21.87-1.74,32.37-4.35,17.51-4.36,24.65-14.63,24.7-32.52,0-2.32,0-4.65-.16-7C710.91,1208.9,703.53,1198.79,687.28,1194.67Zm5.19,46.45c-.59,7.53-5.46,12.83-12.75,15.11a80.48,80.48,0,0,1-49,.07c-7.77-2.42-12.16-8.24-12.77-16.19a130.82,130.82,0,0,1,.26-19.89c.76-9.82,6.61-15.8,15.91-18,6.08-1.46,12.41-1.92,21.06-3.18,6.55,1.2,15.37,2.51,24,4.52a15.78,15.78,0,0,1,12.57,13.94A116.2,116.2,0,0,1,692.47,1241.12ZM764.78,1200v29.69h50.36c.18,3.7.31,6.36.49,10.09H764.12v28h-18v-75.63h80.44c.23,2.26.45,4.42.79,7.86Z"/></svg>