<svg xmlns="http://www.w3.org/2000/svg" xmlns:xlink="http://www.w3.org/1999/xlink" viewBox="0 0 2999 559.73"><defs><style>.a{fill:url(#a);}.b{fill:#df6c8f;}</style><linearGradient id="a" x1="674.72" y1="465.47" x2="600.51" y2="44.61" gradientUnits="userSpaceOnUse"><stop offset="0.4" stop-color="#df6c8f"/><stop offset="0.43" stop-color="#e17596"/><stop offset="0.48" stop-color="#e68da9"/><stop offset="0.55" stop-color="#efb5c7"/><stop offset="0.6" stop-color="#f6d7e1"/></linearGradient></defs><path d="M1133.68,145.17c-.29-6.68-3.65-10.42-10.27-11.24a34.87,34.87,0,0,0-6-.17c-8.44.42-16.37,2.91-24.06,6.22-13.25,5.69-25.22,13.52-36.64,22.23-22.69,17.31-42.77,37.37-61.43,58.89C980.68,238,967,255.57,955.43,274.74c-2.11,3.5-3.9,7.2-5.73,10.87a4,4,0,0,1-2.87,2.31,13.9,13.9,0,0,1-9.26-1.1c-8.89-4-17.94-3.9-27.19-1.4-12.38,3.35-23.54,9.24-34.37,15.9-4.79,2.94-9.58,5.91-14.55,8.51-11.54,6-23.08,12.08-34.82,17.73-17.45,8.41-35.29,15.92-54,21-10.34,2.81-20.8,4.85-31.62,4a24.54,24.54,0,0,1-10-2.94c-7.27-4-7.57-15.94-3-20.41a43.41,43.41,0,0,1,3.84-3.6c6.13-4.72,12.28-9.44,18.52-14,2.36-1.73,5-3,7.52-4.56,1.69-1,3.43-2,5-3.19,3.6-2.62,7.14-5.33,10.68-8,5.6-4.26,11.56-8.14,16.7-12.9,12.07-11.16,24.74-21.56,37.74-31.56,23.07-17.76,45.24-36.5,65-58a197.65,197.65,0,0,0,20.36-25.54,50.14,50.14,0,0,0,7.41-17c1.78-8.38-1.33-13.63-9.46-16.05-.23-.07-.46-.1-.69-.17-6.32-1.78-12.58-.91-18.79.52-10.89,2.49-20.75,7.39-30.21,13.16-14.69,9-28,19.78-40.57,31.46-33.63,31.19-62.69,66.36-89.72,103.3a12.75,12.75,0,0,0-1.28,2.46c-1,2.36-2.21,3.13-4.66,2.54a41.35,41.35,0,0,1-5.66-1.9,36.43,36.43,0,0,0-21.43-1.65c-10.82,2.21-20.77,6.63-30.28,12.06-5.4,3.08-10.43,6.81-15.9,9.75a274,274,0,0,1-39.14,17.55A179.46,179.46,0,0,1,549,334.23a26.58,26.58,0,0,1-8.51-1.79c-3-1.17-3.81-3.49-2.67-6.61a19.53,19.53,0,0,1,2.42-4.64c4.55-6.38,7.53-13.48,9.89-20.89A40.22,40.22,0,0,0,552,283.64c-.72-6.57-4.5-10.18-11.11-10.36A25.51,25.51,0,0,0,522,280.62,33.45,33.45,0,0,0,514,292.47c-1.71,4.24-3.21,8.57-4.51,12.95a26.33,26.33,0,0,0-.36,13.57c.78,3.42,1.3,6.9,2.19,10.29.8,3,0,5.49-1.69,7.94a40.78,40.78,0,0,1-9,9.39,124.14,124.14,0,0,1-47.31,22.53,31.51,31.51,0,0,1-9.07.86c-9.1-.53-12.4-6.5-11.56-12.8a30.08,30.08,0,0,1,.54-4.17c5-17.62,16-30.2,32.55-38,8.59-4,17.35-7.7,25.85-11.91a85.09,85.09,0,0,0,11.45-7.46,14.71,14.71,0,0,0,3.47-3.93c1.75-2.68.92-4.69-2.1-5.62a14.88,14.88,0,0,0-8.34.24A124.71,124.71,0,0,0,455,305.18c-15.87,11.23-27.64,25.61-34,44.18a38.15,38.15,0,0,0-2.41,13.78c.22,6.2,2.79,11.06,8.06,14.39,6,3.79,12.78,4.58,19.6,4.37a66.78,66.78,0,0,0,20.57-4.2c12.91-4.66,24.61-11.54,35.6-19.66,4.42-3.26,8.51-7,12.87-10.34a17.34,17.34,0,0,1,13.75-3.81,90.71,90.71,0,0,0,14.3,1.36c7.25,0,14.5-.51,21.73-1.1,16.31-1.34,32.09-5.25,47.56-10.47,3.3-1.11,6.56-2.33,10.44-3.71-.73,1-1,1.4-1.38,1.82-4.84,5.89-9.88,11.63-14.48,17.71a47.63,47.63,0,0,0-8.49,17.65c-1.71,7.05.83,12.23,7.58,15a28.78,28.78,0,0,0,18.26,1.05c9.49-2.38,18.37-6.38,27.13-10.6,17.13-8.25,33.79-17.37,50.07-27.17a19.48,19.48,0,0,1,3.15-1.53c4-1.5,6.19-.46,7.58,3.58a13.29,13.29,0,0,1,.56,2c.86,5.68,4.12,9.56,9.09,12.17,5.86,3.09,12.24,4,18.7,4.08,9.31.19,18.43-1.45,27.41-3.72,19.51-4.92,38.06-12.45,56.21-21,2.35-1.11,4.72-2.16,7.3-3.34-4.1,6-8.25,11.39-11.69,17.23A48.49,48.49,0,0,0,815,367.53c-1.63,6.48-.07,11,6.95,14.32a23.85,23.85,0,0,0,15.79,1.82A112.93,112.93,0,0,0,853.13,379c15.21-5.94,29.56-13.68,43.84-21.55,7.07-3.91,14.11-7.9,21.25-11.68,1.45-.78,3.68-1.62,4.84-1,1.85.94.92,3.36.75,5.16-.53,5.72-1.45,11.41-1.7,17.14a69.29,69.29,0,0,0,3.24,25.32c3.95,11.7,11,20.89,22.75,25.26,17.88,6.62,35.22,5.45,51.25-5.6a30.91,30.91,0,0,0,6.11-6.19c1.51-1.85,1.36-4.11.22-6.9a29,29,0,0,0-4.39,2,91.32,91.32,0,0,0-7.6,5.66c-7.89,6.63-16.78,9.77-27.09,7.88-8.43-1.55-15.24-6-20.7-12.45-7.67-9.09-11-19.85-11.31-31.54-.25-8.38,1.43-16.54,3.6-24.6a37.43,37.43,0,0,1,7.17-14,85.68,85.68,0,0,1,14.37-13.4q27.46-21.4,55-42.77c21.53-16.81,42.71-34,62.49-52.91a389.22,389.22,0,0,0,40.54-44.39c4.78-6.23,9.71-12.37,12.81-19.71C1132.36,154.4,1133.89,150,1133.68,145.17ZM735.51,301.52a39.32,39.32,0,0,1,2.91-7.11c5.44-10,12.2-19.18,19.26-28.11,10.75-13.61,22.19-26.63,34.17-39.19,17.9-18.76,36.44-36.83,56.84-52.89,10.23-8.07,20.81-15.62,32.55-21.41a52.31,52.31,0,0,1,16-5.12c.7-.09,1.4-.13,2.08-.19,2.8,0,4.94,1.64,6.67,3.42.8.82.86,3,.45,4.24a21.52,21.52,0,0,1-2.94,5.56c-6.69,9.85-14.7,18.58-23,27.09-23.17,23.86-48.21,45.68-73.8,66.88-16.54,13.7-33.4,27-51,39.31-4.23,2.95-8.65,5.64-13.05,8.32a16.46,16.46,0,0,1-4.53,1.86C736,304.72,734.86,303.61,735.51,301.52ZM526.62,318.41c-1.61,1.36-3.06,1.2-4.09-.64a11.37,11.37,0,0,1-1.53-4.94c-.25-7.08,1.42-13.66,5.86-19.36,1.22-1.57,2.35-3.21,3.7-4.65a8.71,8.71,0,0,1,2.88-1.92c4.27-1.84,6.56-.18,6.31,4.82-.2,1-.37,2.46-.75,3.8a61.21,61.21,0,0,1-9.07,19.28A19.89,19.89,0,0,1,526.62,318.41ZM713.8,305.52c-.64,1.37-1.42,2.67-2.14,4-1.06,2-.17,3.78.88,5.2,1.39,1.88.82,3.1-.48,4.54s-2.62,3.33-4.1,4.83c-2.14,2.16-4.17,4.59-6.7,6.16-21.26,13.19-43.08,25.37-66,35.4-5.37,2.34-10.81,4.59-16.69,5.39a13.39,13.39,0,0,1-4.51-.13c-2.3-.49-3.23-1.9-2.39-4.15a36.85,36.85,0,0,1,4.19-8.43,99.41,99.41,0,0,1,9.79-11.95c6.49-6.6,13.07-13.16,20.12-19.16,7.39-6.3,15.25-12.08,23.13-17.78A82.21,82.21,0,0,1,689.78,298c3.84-1.33,7.88-2.11,10.44-2.78,4.94.23,8.29.74,11.27,2.56C714.72,299.74,715.4,302.07,713.8,305.52Zm215.13,13c-.42.56-1,1-1.43,1.55-5,7.53-12.4,11.95-19.94,16.33-17.77,10.31-35.7,20.29-54.52,28.57-5.9,2.59-11.85,5.14-18.3,6.1a12.61,12.61,0,0,1-3.83,0c-3.06-.51-3.91-2-3-5,1.16-4,3.61-7.34,6.16-10.56a203.6,203.6,0,0,1,35.65-34.75c7.53-5.81,15-11.61,23.27-16.4,6.5-3.79,13.17-7.15,20.68-8.55a24,24,0,0,1,13.11,1.07c4.68,1.75,7.14,5.19,7.11,11.39C933.7,311.24,931.56,315,928.93,318.49Zm193.22-164.2a61.79,61.79,0,0,1-8.34,15c-8,10.77-17.31,20.4-26.89,29.75-24.07,23.46-49.8,45-76.18,65.8-9.77,7.7-19.81,15.05-29.7,22.6-3.17,2.42-6.17,5.06-9.37,7.44a88.13,88.13,0,0,1-7.65,5,15.3,15.3,0,0,1-4.23,1.67c-2.16.5-3.29-.44-3-2.58a15.68,15.68,0,0,1,1.75-5.27q11.19-19.55,24.23-37.93A497.36,497.36,0,0,1,1016.08,214c4.58-5.17,9.49-10.05,14.26-15.06A293.41,293.41,0,0,1,1067,166.24c9.88-7.38,20.21-14,31.8-18.55a56.87,56.87,0,0,1,16-3.59,15.86,15.86,0,0,1,5.51.82c2.26.66,3,2,3.14,4.66C1123.05,151.15,1122.73,152.77,1122.15,154.29Z"/><path d="M512.5,221.94q33-28.73,66.1-57.36c16.28-14.13,32.45-28.4,48.85-42.38,11.42-9.73,23.16-19.07,34.74-28.6,5.78-4.77,11.29-9.86,18.39-12.78,7.49-3.08,14.94-6.21,23.14-6.84,5.25-.41,10.49-.8,15.74-1.13q17.68-1.09,35.38-2.12t35.39-2.11q12.43-.74,24.88-1.41c9.12-.49,18.23-1,27.35-1.41q16.49-.76,33-1.41,11.07-.44,22.13-.7c6.1-.15,12.21-.36,18.3-.21,13.58.34,27.16.76,40.73,1.41,10.28.48,20.57,1.12,30.8,2.13,11.75,1.15,23.49,2.55,35.16,4.3,9.85,1.47,19.62,3.59,28.7,7.91a30.56,30.56,0,0,1,7.28,4.81c3.81,3.45,4.16,6.79,2,11.42a11.8,11.8,0,0,0-1.21,4c-.16,2.16.75,2.93,2.92,3,3,.11,5.08-1.57,6.9-3.64,6.34-7.17,3.65-19.25-2.7-23.16a75.38,75.38,0,0,0-9.26-5c-7.77-3.39-16-5.33-24.29-7C1015,59.92,996.92,58,978.78,56.67c-27.06-2.05-54.17-2.7-81.3-2.62-35.93.11-71.83,1.63-107.71,3.32-9.15.43-18.29,1-27.43,1.55-17.57,1.09-35.14,2.24-52.72,3.33a31.09,31.09,0,0,1-4.11-.3c0-2.89,2.15-3.63,3.62-4.72,7.25-5.39,14.59-10.63,21.88-16,2.86-2.09,3.16-3.12,2.22-6.56-.83-3-2.42-4.11-5.46-3.54a15.33,15.33,0,0,0-6.38,2.74c-11.9,8.79-23.88,17.46-35.8,26.22a27.65,27.65,0,0,1-13.79,5.74c-6.31.63-12.61,1.3-18.92,1.89-13.9,1.29-27.82,2.46-41.72,3.81Q588.56,73.76,566,76.2c-15.75,1.68-31.51,3.33-47.24,5.21-19.68,2.36-39.38,4.73-59,7.48-23.35,3.28-46.7,6.6-69.94,10.55-47.09,8-93.7,18.31-139.92,30.36-27.25,7.11-54.3,14.9-80.73,24.69-11,4.07-21.88,8.5-32.14,14.25a19.6,19.6,0,0,0-5.23,4.06c-2.47,2.85-1.45,6.64,2,8.13a10.59,10.59,0,0,0,10.39-1,3.5,3.5,0,0,0,1.62-2.47c-.17-2,1.05-2.72,2.48-3.32,5-2.08,9.91-4.26,15-6.15,29-10.84,58.74-19.38,88.77-26.82q35.8-8.86,71.89-16.55c23.94-5.06,48-9.46,72.07-13.89,14.38-2.65,28.84-4.89,43.29-7.16,11.09-1.75,22.21-3.32,33.33-4.85,9.51-1.3,19-2.46,28.55-3.61q22.64-2.73,45.28-5.35c9.76-1.11,19.54-2,29.31-3.07q22-2.33,43.94-4.66c10.93-1.16,21.85-2.33,32.79-3.36,1.64-.16,3.35.4,5.73.73-1,1.75-1.5,3.07-2.4,4a60.27,60.27,0,0,1-6,5.43c-38.44,30.35-76.08,61.66-113.33,93.45Q399.49,299.13,268,422.15c-27.44,25.68-54.73,51.53-80.84,78.57-5.62,5.82-10.83,12-16.31,18-2.36,2.57-3.16,5.7-3.6,9a7.81,7.81,0,0,0,1.48,5.66c1.9,2.67,5.51,3.92,7.65,2.63,2.89-1.74,4.47-5.81,3.31-8.68a4,4,0,0,1,.87-4.79c7.68-7.74,15.21-15.63,23-23.28,9.77-9.63,19.69-19.13,29.63-28.59q13.63-13,27.47-25.72c11.05-10.14,22.22-20.15,33.34-30.21,9.91-9,19.79-18,29.76-26.85q21.24-19,42.6-37.78,20-17.72,40-35.4,23.49-20.65,47.1-41.18Q483,247.74,512.5,221.94Z"/><path d="M1799.5,198.22c-8.6-17.57-22.4-28.72-41.3-33.32a108.2,108.2,0,0,0-43.61-1.23c-25,4.13-41.43,18.43-49.93,42.09a117.14,117.14,0,0,0-3.46,11.46c-5.35,21.85-5.84,44.15-5.52,66.48,0,9-.48,18,.11,27,1.11,16.92,3,33.76,9.6,49.67,8.71,20.88,23.64,34,46.12,38.46a116.58,116.58,0,0,0,38.71.94c25.51-3.49,43.64-17.12,52.57-41.63a132.84,132.84,0,0,0,6.61-25c4.63-30.11,4-60.39,1.33-90.62C1809.37,227.23,1806.34,212.21,1799.5,198.22Zm-36.12,122.31a53.79,53.79,0,0,1-2.57,11.66c-5.36,16.42-18.07,23.63-35,20-7.27-1.55-13.06-5.63-16-12.38-2.73-6.34-5.19-13.11-6-19.9a288.9,288.9,0,0,1,1.32-81.48A49.27,49.27,0,0,1,1708,227.9c4.34-10.75,11.92-17.46,24-17.87s21.12,4.35,26.36,15.77c4.83,10.52,5.66,21.78,6.53,33,.61,7.93.11,15.95.11,23.94l1.25,0C1765.29,295.36,1764.51,308,1763.38,320.53Z"/><path d="M1977.16,276.21c-10.9-6.26-22.86-10.64-34.24-16.09-8.67-4.15-17.51-8.1-25.62-13.18-6.6-4.14-9.62-10.9-7.87-19.05s6.57-13.92,14.62-16.07a43.84,43.84,0,0,1,14.71-1.47c11,1,17.78,8.54,18.83,19.66.36,3.85,1,7.67,1.43,11.54l45.61,3.21a83.32,83.32,0,0,0-1.85-30.89c-6.7-28.44-26.17-46.63-54.83-50.85a98.17,98.17,0,0,0-20.92-.56c-26.19,1.83-47.16,12.86-57.64,37.84-11,26.26-11.5,52.44,6.82,76.48,8.34,11,20.09,17.24,32.25,22.73,8.78,4,18,7,26.73,11a113.39,113.39,0,0,1,19,10.67c6.19,4.46,8,11.5,6.29,18.79a15.13,15.13,0,0,1-14.41,12,93.13,93.13,0,0,1-25.56-1.93c-9.27-2.2-14-9.64-14.91-19.17-.32-3.24-.44-6.5-.71-10.61l-45.33-3.31c0,8.68-.82,16.37.15,23.82,3.66,27.92,18.18,47.39,45.76,55.73a107.85,107.85,0,0,0,60,.76c16.55-4.44,29.07-14.47,36.41-30.19,7.8-16.69,7.76-34.18,4-51.77C2002.23,298,1992.19,284.85,1977.16,276.21Z"/><path d="M2429,351.44c-12.94,0-24.58,0-36.23,0-11.81-.05-23.63-.17-35.49-.26V308.08h57.83V260h-57.66V211.67h69c1.86-13.93,1.34-40.67-.74-47.25H2311.08c-2.34,10.28-2.15,226.14.08,233.54H2429.4c0-8.27,0-15.88,0-23.49S2429.14,359.47,2429,351.44Z"/><path d="M2868.52,351.44H2841.2c-8.33,0-16.66.17-25-.05s-16.85,1.06-25.84-1.18c2.22-4.56,3.73-7.88,5.42-11.1,21.6-41.27,42.53-82.92,65.19-123.6,9.38-16.86,7.15-33.59,7.33-50.76-19-2.08-131.6-1.22-138.56.91v46.26h77.86c-2.47,5.42-4.16,9.64-6.26,13.66q-33.75,64.66-67.59,129.26c-1.68,3.23-4.13,6.58-4.3,10-.56,10.88-.21,21.8-.21,33.26h139.24C2868.62,382.48,2868.62,367.4,2868.52,351.44Z"/><path d="M2143.76,165.68V398h45.76c1.66-26.58-1-52.77,1.72-79.73h59.39c-.23-16.15.61-31.27-.63-47.33h-59.66c-.18-20.1-1.28-39.18.9-59.36h71.23V165.1C2249.86,163,2150.66,163.53,2143.76,165.68Z"/><path d="M1551.36,164.37h-45.59V397.73c15.93,2,107.83,1.32,114.72-.8V350.2h-69.13Z"/><path d="M2522.67,164.38h-45.41V397.66c15.12,2.07,107.79,1.38,114.56-.73V350.17h-69.15Z"/><path d="M2634.34,398.12h45.81V164.55h-45.81Z"/><path d="M1261,251a142.75,142.75,0,0,0-29.52-3.87c-12.94-.5-25.91.36-38.3,4.93-10,3.7-17.42,10.26-19.22,21-1.24,7.43-1.16,15.19-.79,22.76.64,12.83,8.31,20.31,20,24.56,11.49,4.2,23.34,4.6,35.48,5.4,10.81-1.38,21.86-1.74,32.36-4.36,17.52-4.36,24.65-14.63,24.71-32.51,0-2.33,0-4.66-.17-7C1284.6,265.22,1277.22,255.11,1261,251Zm5.2,46.44c-.59,7.54-5.46,12.83-12.75,15.11a80.52,80.52,0,0,1-49,.08c-7.76-2.43-12.15-8.25-12.77-16.2a130.68,130.68,0,0,1,.27-19.88c.76-9.82,6.61-15.81,15.9-18,6.09-1.46,12.41-1.92,21.07-3.18,6.55,1.21,15.36,2.51,24,4.52a15.76,15.76,0,0,1,12.56,14A115.41,115.41,0,0,1,1266.16,297.43Z"/><path d="M1401,256.3c-.35-3.44-.56-5.6-.79-7.85H1319.8v75.63h18v-28h51.52c-.18-3.73-.31-6.39-.5-10.1h-50.35V256.3Z"/><path class="a" d="M1133.68,136.17c-.29-6.68-3.65-10.42-10.27-11.24a34.87,34.87,0,0,0-6-.17c-8.44.42-16.37,2.91-24.06,6.22-13.25,5.69-25.22,13.52-36.64,22.23-22.69,17.31-42.77,37.37-61.43,58.89C980.68,229,967,246.57,955.43,265.74c-2.11,3.5-3.9,7.2-5.73,10.87a4,4,0,0,1-2.87,2.31,13.9,13.9,0,0,1-9.26-1.1c-8.89-4-17.94-3.9-27.19-1.4-12.38,3.35-23.54,9.24-34.37,15.9-4.79,2.94-9.58,5.91-14.55,8.51-11.54,6-23.08,12.08-34.82,17.73-17.45,8.41-35.29,15.92-54,21-10.34,2.81-20.8,4.85-31.62,4a24.54,24.54,0,0,1-10-2.94c-7.27-4-7.57-15.94-3-20.41a43.41,43.41,0,0,1,3.84-3.6c6.13-4.72,12.28-9.44,18.52-14,2.36-1.73,5-3,7.52-4.56,1.69-1,3.43-2,5-3.19,3.6-2.62,7.14-5.33,10.68-8,5.6-4.26,11.56-8.14,16.7-12.9,12.07-11.16,24.74-21.56,37.74-31.56,23.07-17.76,45.24-36.5,65-58a197.65,197.65,0,0,0,20.36-25.54,50.14,50.14,0,0,0,7.41-17c1.78-8.38-1.33-13.63-9.46-16-.23-.07-.46-.1-.69-.17-6.32-1.78-12.58-.91-18.79.52-10.89,2.49-20.75,7.39-30.21,13.16-14.69,9-28,19.78-40.57,31.46-33.63,31.19-62.69,66.36-89.72,103.3a12.75,12.75,0,0,0-1.28,2.46c-1,2.36-2.21,3.13-4.66,2.54a41.35,41.35,0,0,1-5.66-1.9,36.43,36.43,0,0,0-21.43-1.65c-10.82,2.21-20.77,6.63-30.28,12.06-5.4,3.08-10.43,6.81-15.9,9.75a274,274,0,0,1-39.14,17.55A179.46,179.46,0,0,1,549,325.23a26.58,26.58,0,0,1-8.51-1.79c-3-1.17-3.81-3.49-2.67-6.61a19.53,19.53,0,0,1,2.42-4.64c4.55-6.38,7.53-13.48,9.89-20.89A40.22,40.22,0,0,0,552,274.64c-.72-6.57-4.5-10.18-11.11-10.36A25.51,25.51,0,0,0,522,271.62,33.45,33.45,0,0,0,514,283.47c-1.71,4.24-3.21,8.57-4.51,12.95a26.33,26.33,0,0,0-.36,13.57c.78,3.42,1.3,6.9,2.19,10.29.8,3,0,5.49-1.69,7.94a40.78,40.78,0,0,1-9,9.39,124.14,124.14,0,0,1-47.31,22.53,31.51,31.51,0,0,1-9.07.86c-9.1-.53-12.4-6.5-11.56-12.8a30.08,30.08,0,0,1,.54-4.17c5-17.62,16-30.2,32.55-38,8.59-4,17.35-7.7,25.85-11.91a85.09,85.09,0,0,0,11.45-7.46,14.71,14.71,0,0,0,3.47-3.93c1.75-2.68.92-4.69-2.1-5.62a14.88,14.88,0,0,0-8.34.24A124.71,124.71,0,0,0,455,296.18c-15.87,11.23-27.64,25.61-34,44.18a38.15,38.15,0,0,0-2.41,13.78c.22,6.2,2.79,11.06,8.06,14.39,6,3.79,12.78,4.58,19.6,4.37a66.78,66.78,0,0,0,20.57-4.2c12.91-4.66,24.61-11.54,35.6-19.66,4.42-3.26,8.51-7,12.87-10.34a17.34,17.34,0,0,1,13.75-3.81,90.71,90.71,0,0,0,14.3,1.36c7.25,0,14.5-.51,21.73-1.1,16.31-1.34,32.09-5.25,47.56-10.47,3.3-1.11,6.56-2.33,10.44-3.71-.73,1-1,1.4-1.38,1.82-4.84,5.89-9.88,11.63-14.48,17.71a47.63,47.63,0,0,0-8.49,17.65c-1.71,7.05.83,12.23,7.58,15a28.78,28.78,0,0,0,18.26,1.05c9.49-2.38,18.37-6.38,27.13-10.6,17.13-8.25,33.79-17.37,50.07-27.17a19.48,19.48,0,0,1,3.15-1.53c4-1.5,6.19-.46,7.58,3.58a13.29,13.29,0,0,1,.56,2c.86,5.68,4.12,9.56,9.09,12.17,5.86,3.09,12.24,4,18.7,4.08,9.31.19,18.43-1.45,27.41-3.72,19.51-4.92,38.06-12.45,56.21-21,2.35-1.11,4.72-2.16,7.3-3.34-4.1,6-8.25,11.39-11.69,17.23A48.49,48.49,0,0,0,815,358.53c-1.63,6.48-.07,11,6.95,14.32a23.85,23.85,0,0,0,15.79,1.82A112.93,112.93,0,0,0,853.13,370c15.21-5.94,29.56-13.68,43.84-21.55,7.07-3.91,14.11-7.9,21.25-11.68,1.45-.78,3.68-1.62,4.84-1,1.85.94.92,3.36.75,5.16-.53,5.72-1.45,11.41-1.7,17.14a69.29,69.29,0,0,0,3.24,25.32c3.95,11.7,11,20.89,22.75,25.26,17.88,6.62,35.22,5.45,51.25-5.6a30.91,30.91,0,0,0,6.11-6.19c1.51-1.85,1.36-4.11.22-6.9a29,29,0,0,0-4.39,2,91.32,91.32,0,0,0-7.6,5.66c-7.89,6.63-16.78,9.77-27.09,7.88-8.43-1.55-15.24-6-20.7-12.45-7.67-9.09-11-19.85-11.31-31.54-.25-8.38,1.43-16.54,3.6-24.6a37.43,37.43,0,0,1,7.17-14,85.68,85.68,0,0,1,14.37-13.4q27.46-21.4,55-42.77c21.53-16.81,42.71-34,62.49-52.91a389.22,389.22,0,0,0,40.54-44.39c4.78-6.23,9.71-12.37,12.81-19.71C1132.36,145.4,1133.89,141,1133.68,136.17ZM735.51,292.52a39.32,39.32,0,0,1,2.91-7.11c5.44-10,12.2-19.18,19.26-28.11,10.75-13.61,22.19-26.63,34.17-39.19,17.9-18.76,36.44-36.83,56.84-52.89,10.23-8.07,20.81-15.62,32.55-21.41a52.31,52.31,0,0,1,16-5.12c.7-.09,1.4-.13,2.08-.19,2.8,0,4.94,1.64,6.67,3.42.8.82.86,3,.45,4.24a21.52,21.52,0,0,1-2.94,5.56c-6.69,9.85-14.7,18.58-23,27.09-23.17,23.86-48.21,45.68-73.8,66.88-16.54,13.7-33.4,27-51,39.31-4.23,2.95-8.65,5.64-13.05,8.32a16.46,16.46,0,0,1-4.53,1.86C736,295.72,734.86,294.61,735.51,292.52ZM526.62,309.41c-1.61,1.36-3.06,1.2-4.09-.64a11.37,11.37,0,0,1-1.53-4.94c-.25-7.08,1.42-13.66,5.86-19.36,1.22-1.57,2.35-3.21,3.7-4.65a8.71,8.71,0,0,1,2.88-1.92c4.27-1.84,6.56-.18,6.31,4.82-.2,1-.37,2.46-.75,3.8a61.21,61.21,0,0,1-9.07,19.28A19.89,19.89,0,0,1,526.62,309.41ZM713.8,296.52c-.64,1.37-1.42,2.67-2.14,4-1.06,2-.17,3.78.88,5.2,1.39,1.88.82,3.1-.48,4.54s-2.62,3.33-4.1,4.83c-2.14,2.16-4.17,4.59-6.7,6.16-21.26,13.19-43.08,25.37-66,35.4-5.37,2.34-10.81,4.59-16.69,5.39a13.39,13.39,0,0,1-4.51-.13c-2.3-.49-3.23-1.9-2.39-4.15a36.85,36.85,0,0,1,4.19-8.43,99.41,99.41,0,0,1,9.79-11.95c6.49-6.6,13.07-13.16,20.12-19.16,7.39-6.3,15.25-12.08,23.13-17.78A82.21,82.21,0,0,1,689.78,289c3.84-1.33,7.88-2.11,10.44-2.78,4.94.23,8.29.74,11.27,2.56C714.72,290.74,715.4,293.07,713.8,296.52Zm215.13,13c-.42.56-1,1-1.43,1.55-5,7.53-12.4,11.95-19.94,16.33-17.77,10.31-35.7,20.29-54.52,28.57-5.9,2.59-11.85,5.14-18.3,6.1a12.61,12.61,0,0,1-3.83,0c-3.06-.51-3.91-2-3-5,1.16-4,3.61-7.34,6.16-10.56a203.6,203.6,0,0,1,35.65-34.75c7.53-5.81,15-11.61,23.27-16.4,6.5-3.79,13.17-7.15,20.68-8.55a24,24,0,0,1,13.11,1.07c4.68,1.75,7.14,5.19,7.11,11.39C933.7,302.24,931.56,306,928.93,309.49Zm193.22-164.2a61.79,61.79,0,0,1-8.34,15c-8,10.77-17.31,20.4-26.89,29.75-24.07,23.46-49.8,45-76.18,65.8-9.77,7.7-19.81,15.05-29.7,22.6-3.17,2.42-6.17,5.06-9.37,7.44a88.13,88.13,0,0,1-7.65,5,15.3,15.3,0,0,1-4.23,1.67c-2.16.5-3.29-.44-3-2.58a15.68,15.68,0,0,1,1.75-5.27q11.19-19.55,24.23-37.93A497.36,497.36,0,0,1,1016.08,205c4.58-5.17,9.49-10.05,14.26-15.06A293.41,293.41,0,0,1,1067,157.24c9.88-7.38,20.21-14,31.8-18.55a56.87,56.87,0,0,1,16-3.59,15.86,15.86,0,0,1,5.51.82c2.26.66,3,2,3.14,4.66C1123.05,142.15,1122.73,143.77,1122.15,145.29ZM453.49,264.52q-23.57,20.6-47.1,41.18-20.07,17.63-40,35.4-21.31,18.87-42.6,37.78c-10,8.89-19.85,17.89-29.76,26.85-11.12,10.06-22.29,20.07-33.34,30.21q-13.86,12.74-27.47,25.72c-9.94,9.46-19.86,19-29.63,28.59-7.77,7.65-15.3,15.54-23,23.28a4,4,0,0,0-.87,4.79c1.16,2.87-.42,6.94-3.31,8.68-2.14,1.29-5.75,0-7.65-2.63a7.81,7.81,0,0,1-1.48-5.66c.44-3.28,1.24-6.41,3.6-9,5.48-6,10.69-12.19,16.31-18,26.11-27,53.4-52.89,80.84-78.57q131.45-123,268.41-239.9c37.25-31.79,74.89-63.1,113.33-93.45a60.27,60.27,0,0,0,6-5.43c.9-.92,1.38-2.24,2.4-4-2.38-.33-4.09-.89-5.73-.73-10.94,1-21.86,2.2-32.79,3.36q-22,2.31-43.94,4.66c-9.77,1-19.55,2-29.31,3.07q-22.65,2.58-45.28,5.35c-9.52,1.15-19,2.31-28.55,3.61-11.12,1.53-22.24,3.1-33.33,4.85-14.45,2.27-28.91,4.51-43.29,7.16-24.06,4.43-48.13,8.83-72.07,13.89s-48,10.64-71.89,16.55c-30,7.44-59.76,16-88.77,26.82-5,1.89-10,4.07-15,6.15-1.43.6-2.65,1.28-2.48,3.32a3.5,3.5,0,0,1-1.62,2.47,10.59,10.59,0,0,1-10.39,1c-3.43-1.49-4.45-5.28-2-8.13a19.6,19.6,0,0,1,5.23-4.06c10.26-5.75,21.13-10.18,32.14-14.25,26.43-9.79,53.48-17.58,80.73-24.69,46.22-12,92.83-22.35,139.92-30.36,23.24-4,46.59-7.27,69.94-10.55,19.63-2.75,39.33-5.12,59-7.48,15.73-1.88,31.49-3.53,47.24-5.21q22.57-2.4,45.18-4.63c13.9-1.35,27.82-2.52,41.72-3.81,6.31-.59,12.61-1.26,18.92-1.89a27.65,27.65,0,0,0,13.79-5.74c11.92-8.76,23.9-17.43,35.8-26.22a15.33,15.33,0,0,1,6.38-2.74c3-.57,4.63.53,5.46,3.54.94,3.44.64,4.47-2.22,6.56-7.29,5.33-14.63,10.57-21.88,16-1.47,1.09-3.63,1.83-3.62,4.72a31.09,31.09,0,0,0,4.11.3c17.58-1.09,35.15-2.24,52.72-3.33,9.14-.57,18.28-1.12,27.43-1.55,35.88-1.69,71.78-3.21,107.71-3.32,27.13-.08,54.24.57,81.3,2.62,18.14,1.37,36.23,3.25,54.09,6.91,8.28,1.69,16.52,3.63,24.29,7a75.38,75.38,0,0,1,9.26,5c6.35,3.91,9,16,2.7,23.16-1.82,2.07-3.91,3.75-6.9,3.64-2.17-.08-3.08-.85-2.92-3a11.8,11.8,0,0,1,1.21-4c2.19-4.63,1.84-8-2-11.42a30.56,30.56,0,0,0-7.28-4.81c-9.08-4.32-18.85-6.44-28.7-7.91-11.67-1.75-23.41-3.15-35.16-4.3-10.23-1-20.52-1.65-30.8-2.13-13.57-.65-27.15-1.07-40.73-1.41-6.09-.15-12.2.06-18.3.21q-11.07.27-22.13.7-16.49.64-33,1.41c-9.12.43-18.23.92-27.35,1.41q-12.43.67-24.88,1.41-17.7,1-35.39,2.11t-35.38,2.12c-5.25.33-10.49.72-15.74,1.13-8.2.63-15.65,3.76-23.14,6.84-7.1,2.92-12.61,8-18.39,12.78-11.58,9.53-23.32,18.87-34.74,28.6-16.4,14-32.57,28.25-48.85,42.38q-33,28.68-66.1,57.36Q483,238.68,453.49,264.52Z"/><path class="b" d="M1810.73,233.5c-1.36-15.27-4.39-30.29-11.23-44.28-8.6-17.57-22.4-28.72-41.3-33.32a108.2,108.2,0,0,0-43.61-1.23c-25,4.13-41.43,18.43-49.93,42.09a117.14,117.14,0,0,0-3.46,11.46c-5.35,21.85-5.84,44.15-5.52,66.48,0,9-.48,18,.11,27,1.11,16.92,3,33.76,9.6,49.67,8.71,20.88,23.64,34,46.12,38.46a116.58,116.58,0,0,0,38.71.94c25.51-3.49,43.64-17.12,52.57-41.63a132.84,132.84,0,0,0,6.61-25C1814,294,1813.44,263.73,1810.73,233.5Zm-47.35,78a53.79,53.79,0,0,1-2.57,11.66c-5.36,16.42-18.07,23.63-35,20-7.27-1.55-13.06-5.63-16-12.38-2.73-6.34-5.19-13.11-6-19.9a288.9,288.9,0,0,1,1.32-81.48A49.27,49.27,0,0,1,1708,218.9c4.34-10.75,11.92-17.46,24-17.87s21.12,4.35,26.36,15.77c4.83,10.52,5.66,21.78,6.53,33,.61,7.93.11,16,.11,23.94l1.25,0C1765.29,286.36,1764.51,299,1763.38,311.53Zm242.55-5.27c3.77,17.59,3.81,35.08-4,51.77-7.34,15.72-19.86,25.75-36.41,30.19a107.85,107.85,0,0,1-60-.76c-27.58-8.34-42.1-27.81-45.76-55.73-1-7.45-.15-15.14-.15-23.82l45.33,3.31c.27,4.11.39,7.37.71,10.61.93,9.53,5.64,17,14.91,19.17a93.13,93.13,0,0,0,25.56,1.93,15.13,15.13,0,0,0,14.41-12c1.74-7.29-.1-14.33-6.29-18.79a113.39,113.39,0,0,0-19-10.67c-8.74-4-18-7-26.73-11-12.16-5.49-23.91-11.77-32.25-22.73-18.32-24-17.84-50.22-6.82-76.48,10.48-25,31.45-36,57.64-37.84A98.17,98.17,0,0,1,1948,154c28.66,4.22,48.13,22.41,54.83,50.85a83.32,83.32,0,0,1,1.85,30.89L1959,232.55c-.48-3.87-1.07-7.69-1.43-11.54-1-11.12-7.84-18.69-18.83-19.66a43.84,43.84,0,0,0-14.71,1.47c-8,2.15-12.86,7.87-14.62,16.07s1.27,14.91,7.87,19.05c8.11,5.08,17,9,25.62,13.18,11.38,5.45,23.34,9.83,34.24,16.09C1992.19,275.85,2002.23,289,2005.93,306.26ZM1551.36,341.2h69.13v46.73c-6.89,2.12-98.79,2.84-114.72.8V155.37h45.59Z"/><path class="b" d="M2429.38,365.47c.07,7.61,0,15.22,0,23.49H2311.16c-2.23-7.4-2.42-223.26-.08-233.54h114.61c2.08,6.58,2.6,33.32.74,47.25h-69V251h57.66v48.06h-57.83v43.09c11.86.09,23.68.21,35.49.26,11.65,0,23.29,0,36.23,0C2429.14,350.47,2429.32,358,2429.38,365.47Zm439.14-23H2841.2c-8.33,0-16.66.17-25-.05s-16.85,1.06-25.84-1.18c2.22-4.56,3.73-7.88,5.42-11.1,21.6-41.27,42.53-82.92,65.19-123.6,9.38-16.86,7.15-33.59,7.33-50.76-19-2.08-131.6-1.22-138.56.91v46.26h77.86c-2.47,5.42-4.16,9.64-6.26,13.66q-33.75,64.66-67.59,129.26c-1.68,3.23-4.13,6.58-4.3,10-.56,10.88-.21,21.8-.21,33.26h139.24C2868.62,373.48,2868.62,358.4,2868.52,342.44ZM2143.76,156.68V389h45.76c1.66-26.58-1-52.77,1.72-79.73h59.39c-.23-16.15.61-31.27-.63-47.33h-59.66c-.18-20.1-1.28-39.18.9-59.36h71.23V156.1C2249.86,154,2150.66,154.53,2143.76,156.68Zm378.91-1.3h-45.41V388.66c15.12,2.07,107.79,1.38,114.56-.73V341.17h-69.15Zm111.67,233.74h45.81V155.55h-45.81Z"/><path class="b" d="M1285.48,272.92c-.88-16.7-8.26-26.81-24.52-30.93a142.75,142.75,0,0,0-29.52-3.87c-12.94-.5-25.91.36-38.3,4.93-10,3.7-17.42,10.26-19.22,21-1.24,7.43-1.16,15.19-.79,22.76.64,12.83,8.31,20.31,20,24.56,11.49,4.2,23.34,4.6,35.48,5.4,10.81-1.38,21.86-1.74,32.36-4.36,17.52-4.36,24.65-14.63,24.71-32.51C1285.66,277.57,1285.61,275.24,1285.48,272.92Zm-19.32,15.51c-.59,7.54-5.46,12.83-12.75,15.11a80.52,80.52,0,0,1-49,.08c-7.76-2.43-12.15-8.25-12.77-16.2a130.68,130.68,0,0,1,.27-19.88c.76-9.82,6.61-15.81,15.9-18,6.09-1.46,12.41-1.92,21.07-3.18,6.55,1.21,15.36,2.51,24,4.52a15.76,15.76,0,0,1,12.56,14A115.41,115.41,0,0,1,1266.16,288.43Zm72.31-41.13V277h50.35c.19,3.71.32,6.37.5,10.1H1337.8v28h-18V239.45h80.44c.23,2.25.44,4.41.79,7.85Z"/></svg>